# xmcd
# 
# Track frame offsets:
#     150
#     24113
#     51083
#     69979
#     87355
#     110257
#     130535
#     151978
#     183131
# 
# Disc length: 2738
# 
# Revision: 1
# Processed by: cddbd v1.5.2PL0 Copyright (c) Steve Scherf et al.
# Submitted via: fre:ac v1.0.31
# 
DISCID=5f0ab009
DTITLE=Savoy Brown - Voodoo Moon
DYEAR=2011
DGENRE=Blues
TTITLE0=Shockwaves
TTITLE1=Natural Man
TTITLE2=Too Much Money
TTITLE3=She's Got The Heat
TTITLE4=Look At The Sun
TTITLE5=24-7
TTITLE6=Round And Round
TTITLE7=Voodoo Moon
TTITLE8=Meet The Blues Head On
EXTD=
EXTT0=
EXTT1=
EXTT2=
EXTT3=
EXTT4=
EXTT5=
EXTT6=
EXTT7=
EXTT8=
PLAYORDER=
